<svg width="44" height="44" viewBox="0 0 44 44" fill="none" xmlns="http://www.w3.org/2000/svg">
<path d="M19.3461 13.4939C18.7221 13.0363 17.838 13 16.5 13C15.249 13 14.4647 13.3986 13.942 14.1391C13.3701 14.9493 13.0015 16.3206 13 18.4871V25.6C13 26.7366 13.0008 27.5289 13.0512 28.1457C13.1006 28.7509 13.1928 29.0986 13.327 29.3619C13.6146 29.9264 14.0735 30.3854 14.638 30.673C14.9014 30.8072 15.2491 30.8994 15.8542 30.9488C16.4711 30.9992 17.2634 31 18.4 31L29 31C29.5523 31 30 31.4477 30 32C30 32.5522 29.5523 33 29 33L18.3572 33C17.2734 33 16.3993 33 15.6914 32.9422C14.9625 32.8826 14.3223 32.7568 13.7301 32.455C12.7892 31.9756 12.0243 31.2107 11.545 30.2699C11.2432 29.6776 11.1174 29.0375 11.0578 28.3086C11 27.6007 11 26.7266 11 25.6428L11 18.5029L11 18.5L11 18C11 17.9512 11.0035 17.9033 11.0102 17.8564C11.0764 15.8266 11.4681 14.1756 12.308 12.9858C13.2853 11.6013 14.751 11 16.5 11L16.6279 10.9999C17.7785 10.9986 19.3231 10.9969 20.5289 11.881C21.8587 12.8563 22.5 14.6486 22.5 17.4999C22.5 18.3883 22.0439 19.0434 21.441 19.4716C20.8781 19.8712 20.1687 20.094 19.4973 20.23C19.0232 20.3261 18.5176 20.388 18.0161 20.4279C18.1144 21.6985 18.6527 22.4786 19.318 23.4248L19.3361 23.4505C19.8286 24.1509 20.382 24.9378 20.7103 26H21.0002C21.0047 25.3783 21.0774 24.542 21.3588 23.6872C21.6518 22.7974 22.1824 21.8558 23.1236 21.1411C24.0703 20.4222 25.3439 20 27 20C28.6561 20 29.9297 20.4222 30.8764 21.1411C31.8176 21.8558 32.3482 22.7974 32.6412 23.6872C32.9322 24.571 33 25.435 33 26.0625C33 26.3797 32.9826 26.6457 32.9647 26.8358C32.9558 26.931 32.9466 27.0078 32.9394 27.0631C32.9357 27.0908 32.9325 27.1132 32.9301 27.1298L32.9269 27.1505L32.9258 27.1575L32.9252 27.1614C32.9252 27.1614 32.9251 27.1619 32.5 27.0923L32.925 27.1624C32.8353 27.7073 32.3208 28.0764 31.7759 27.9867C31.2384 27.8982 30.8643 27.3766 30.9513 26.8393L30.9518 26.8357C30.9527 26.8296 30.9543 26.8183 30.9565 26.802C30.9694 26.7041 31 26.4299 31 26.0625C31 25.5649 30.9444 24.9289 30.7415 24.3127C30.5407 23.7026 30.2071 23.1441 29.6668 22.7339C29.132 22.3277 28.3069 22 27 22C25.6931 22 24.868 22.3277 24.3332 22.7339C23.7929 23.1441 23.4594 23.7026 23.2585 24.3127C23.0556 24.9289 23 25.5649 23 26.0625C23 26.32 23.0103 26.5805 23.0482 26.8357L23.0489 26.8405C23.1368 27.3844 22.7681 27.8971 22.2242 27.9867C22.158 27.9976 22.0924 28.0017 22.0279 27.9996C22.0186 27.9998 22.0093 28 22 28H21C21 28.5522 20.5523 29 20 29C19.4477 29 19 28.5522 19 28C19 26.4673 18.4189 25.6231 17.682 24.5751L17.6639 24.5494C16.9642 23.5544 16.1415 22.3845 16.0163 20.4992C15.8486 20.5 15.6894 20.5 15.5412 20.5L15.5 20.5C14.9477 20.5 14.5 20.0522 14.5 19.5C14.5 18.9477 14.9477 18.5 15.5 18.5C16.5876 18.5 17.9828 18.4963 19.1001 18.2699C19.6624 18.1559 20.0537 18.0037 20.2831 17.8408C20.4723 17.7065 20.5 17.6116 20.5 17.4999C20.5 14.8513 19.8913 13.8936 19.3461 13.4939Z" fill="#768694"/>
</svg>
